<svg xmlns="http://www.w3.org/2000/svg" viewBox="0 0 800 500"><g id="b3fbda2a-d78e-4764-919b-a824c7bc7444" data-name="background-Layer"><rect id="b3345312-431f-4147-9567-66a3d8c68fc9" data-name="background" width="800" height="500" fill="#fafafa"/></g><g id="a9e02ebd-16c6-48a2-9947-d68393739166" data-name="leaf-layer"><g id="b8d5b623-77d0-474f-bdfe-d975c502288a" data-name="leaf"><path d="M363.25,206s16.8-32.68-6.45-55.9-66-16.55-66-16.55-6.69,42.76,16.55,66S363.25,206,363.25,206Z" fill="#00ab6c"/><path d="M298.12,186.75s34.65,8.69,70.52.75L365.22,199c-1.88,2.25-10.91,12.58-26.16,14-20.23,1.94-33.23-13.5-34.29-14.8Q301.44,192.5,298.12,186.75Z" fill="#009860"/><path d="M337.58,216.57c-10.81,0-23.1-3.09-33.63-13.62-24.68-24.69-18.19-68.3-17.9-70.15a4.79,4.79,0,0,1,4-4c1.85-.29,45.46-6.77,70.14,17.89,10.58,10.58,15.18,24.62,13.31,40.62a66.58,66.58,0,0,1-6,20.88,4.81,4.81,0,0,1-2.07,2.07A68.43,68.43,0,0,1,337.58,216.57Zm-42.45-78.68c-.92,10.39-1.88,40.8,15.6,58.28,8.49,8.48,19.4,12.05,32.43,10.6a59.81,59.81,0,0,0,16.47-4.38A59.09,59.09,0,0,0,364,185.91c1.45-13-2.11-23.94-10.6-32.42C335.94,136,305.52,137,295.13,137.89ZM363.25,206h0Zm0,0h0Z" fill="#007c47"/><path d="M360.58,208.13a4.8,4.8,0,0,1-3.39-1.4L321,170.5a4.79,4.79,0,0,1,6.78-6.78L364,200a4.79,4.79,0,0,1-3.39,8.18Z" fill="#007c47"/><path d="M340.35,187.9a4.8,4.8,0,0,1-4.8-4.8V165.73a4.8,4.8,0,1,1,9.59,0V183.1A4.79,4.79,0,0,1,340.35,187.9Z" fill="#007c47"/><g opacity="0.3" style="isolation:isolate"><path d="M301,140.43s20.87-2.2,31.09,5.52C332.12,146,312.77,152.17,301,140.43Z" fill="#fff"/></g></g></g><g id="bbc644fb-995e-4c20-8a94-5fa2772c61e7" data-name="milk-layer"><g id="ab360c81-1aa2-43c7-9f35-4e9e2a78ec60" data-name="milk"><path d="M496.83,235.67v27.2a20,20,0,0,1-20,20H410a20,20,0,0,1-20-20v-27.2a20,20,0,0,0,20,20h66.84A20,20,0,0,0,496.83,235.67Z" fill="#d1e1e8"/><path d="M496.83,154.34v81.33a20,20,0,0,1-20,20H410a20,20,0,0,1-20-20V154.34a13.4,13.4,0,0,1,4.26-9.81l25.87-24.16V107.86a11.83,11.83,0,0,1-8.24-7,11.7,11.7,0,0,1-.83-6,12,12,0,0,1,9.07-10,12.8,12.8,0,0,1,3.11-.38h40.43a12.69,12.69,0,0,1,3.09.38,12,12,0,0,1,9.09,10,11.63,11.63,0,0,1-.84,6,11.85,11.85,0,0,1-8.25,7v12.51l25.87,24.16A13.44,13.44,0,0,1,496.83,154.34Z" fill="#d1e1e8"/><path d="M459.08,161.26c-16,0-15.84-9.11-33.06-9.11s-23.53,15.78-23.53,15.78v87.36a15.26,15.26,0,0,0,15.26,15.27H469a15.26,15.26,0,0,0,15.27-15.27V152.13S475.14,161.26,459.08,161.26Z" fill="#f2f4f4"/><path d="M463.84,104.26H422.91a11.69,11.69,0,0,1-11.68-11.68h0A11.69,11.69,0,0,1,422.91,80.9h40.93a11.68,11.68,0,0,1,11.68,11.68h0A11.69,11.69,0,0,1,463.84,104.26Z" fill="#6a9be2"/><g opacity="0.4" style="isolation:isolate"><circle cx="430.32" cy="92.2" r="6" fill="#fff"/></g><g opacity="0.1" style="isolation:isolate"><path d="M496.83,235.67v27.2a20,20,0,0,1-20,20H410a20,20,0,0,1-20-20v-27.2a20,20,0,0,0,20,20h66.84A20,20,0,0,0,496.83,235.67Z" fill="#2f383f"/></g><g opacity="0.1" style="isolation:isolate"><rect x="419.98" y="106.58" width="46.7" height="11.22" fill="#2f383f"/></g><path d="M476.79,287.69H410a24.85,24.85,0,0,1-24.82-24.82V154.34A18.25,18.25,0,0,1,390.92,141l24.34-22.71V107.86a4.8,4.8,0,0,1,9.59,0v12.51a4.77,4.77,0,0,1-1.52,3.5L397.45,148a8.68,8.68,0,0,0-2.73,6.32V262.87A15.24,15.24,0,0,0,410,278.1h66.84A15.25,15.25,0,0,0,492,262.87V154.34a8.76,8.76,0,0,0-2.76-6.34l-25.85-24.13a4.77,4.77,0,0,1-1.52-3.5V107.86a4.79,4.79,0,0,1,9.58,0v10.43L495.82,141a18.35,18.35,0,0,1,5.78,13.33V262.87A24.85,24.85,0,0,1,476.79,287.69Z" fill="#a7c4d1"/><path d="M463.84,110H422.91a17.43,17.43,0,0,1,0-34.86h40.93a17.43,17.43,0,1,1,0,34.86ZM422.91,86.65a5.93,5.93,0,0,0,0,11.86h40.93a5.93,5.93,0,1,0,0-11.86Z" fill="#3e659e"/><rect x="402.49" y="152.17" width="81.78" height="41.71" fill="#f2f4f4"/><circle cx="433.12" cy="152.53" r="16.57" fill="#fff"/><circle cx="433.12" cy="184.68" r="7.81" fill="#fff"/></g></g><g id="f82a74ce-f1f6-48da-884f-0f5afd4ca9c4" data-name="orange-layer"><g id="be531483-346c-4f1a-87b9-76a3d3813afa" data-name="orange"><circle cx="371.63" cy="177.16" r="58.84" fill="#f2690c"/><ellipse cx="371.63" cy="162.12" rx="56.9" ry="43.8" fill="#ff7e1d"/><path d="M371.63,240.79a63.67,63.67,0,1,1,63.64-63.63A63.71,63.71,0,0,1,371.63,240.79Zm0-117.68a54,54,0,1,0,52.27,40.24A54.08,54.08,0,0,0,371.63,123.11Z" fill="#dd5e00"/><g opacity="0.3" style="isolation:isolate"><circle cx="366.47" cy="169.83" r="6" fill="#fff"/></g><g opacity="0.3" style="isolation:isolate"><circle cx="354.1" cy="147.81" r="15.42" transform="translate(151.47 473.66) rotate(-80.78)" fill="#fff"/></g></g></g><g id="a150c2ff-1c1b-496f-b35a-ce7784f671cc" data-name="bag-layer"><g id="e2be8f03-5984-44d8-a0f2-b81eaf0ce22e" data-name="bag"><path d="M480.6,181.72V407.94a11.48,11.48,0,0,1-11.47,11.47H289.29a11.48,11.48,0,0,1-11.48-11.47V181.72a11.49,11.49,0,0,1,2.45-7.09l1.3,2.26,6.31,10.93L298,205.39l10.15-17.57,10.14-17.59,10.15,17.59,10.16,17.57,10.15-17.57,10.14-17.59,10.15,17.59,10.14,17.57,10.15-17.57,10.15-17.59,10.16,17.59,10.15,17.57L430,187.82l10.15-17.59,10.14,17.59,10.15,17.57,10.14-17.57,5.78-10,1.84-3.18A11.49,11.49,0,0,1,480.6,181.72Z" fill="#e8a34a"/><path d="M523.35,172.52V407.17c0,6.31-.94,11.49-2.14,12.16a.49.49,0,0,1-.27.08H483c-1,0-1.94-3.34-2.26-8.06-.1-1.3-.16-2.7-.16-4.18V172.52h3a13.24,13.24,0,0,0-1.15,1l8.27,14.32,10.14,17.57,1.1-1.9L511,187.82l8.84-15.3Z" fill="#f4be78"/><path d="M502,203.49V405.31a11.48,11.48,0,0,1-21.23,6,11.31,11.31,0,0,1-1.73-6V181.72a11.62,11.62,0,0,1,3.45-8.22l8.27,14.32,10.14,17.57Z" fill="#e8a34a"/><path d="M476.31,177.81V375.05a10.85,10.85,0,0,1-11,10.68H292.59a10.85,10.85,0,0,1-11-10.68V176.89l6.31,10.93L298,205.39l10.14-17.57,10.15-17.59,10.15,17.59,10.16,17.57,10.15-17.57,10.14-17.59,10.15,17.59,10.14,17.57,10.15-17.57,10.14-17.59,10.17,17.59,10.15,17.57L430,187.82l10.15-17.59,10.14,17.59,10.15,17.57,10.14-17.57Z" fill="#f4be78"/><path d="M277.8,175.16a4.78,4.78,0,0,1-4.39-2.88,4.9,4.9,0,0,1,.36-4.61,4.78,4.78,0,0,1,8.83,2.56v.14a4.79,4.79,0,0,1-3.82,4.69A4.66,4.66,0,0,1,277.8,175.16Z" fill="#b56d45"/><path d="M480.6,424.2H277.81a4.79,4.79,0,0,1-4.8-4.79v-249A4.8,4.8,0,0,1,282,168L298,195.8l16.14-28a4.79,4.79,0,0,1,8.3,0l16.17,28,16.13-28a4.8,4.8,0,0,1,8.31,0l16.13,28,16.16-28a4.79,4.79,0,0,1,4.16-2.4h0a4.79,4.79,0,0,1,4.15,2.4l16.14,28,16.14-28a4.79,4.79,0,0,1,8.3,0l16.15,28,16-27.81a4.8,4.8,0,0,1,9,2.38v249A4.79,4.79,0,0,1,480.6,424.2Zm-198-9.59H475.81V188.27l-11.25,19.51a4.76,4.76,0,0,1-4.15,2.4h0a4.79,4.79,0,0,1-4.15-2.39l-16.16-28-16.14,28a4.81,4.81,0,0,1-8.31,0l-16.14-28-16.15,28a4.81,4.81,0,0,1-8.31,0l-16.14-28L342.8,207.78a4.79,4.79,0,0,1-4.15,2.4h0a4.8,4.8,0,0,1-4.15-2.39l-16.18-28-16.14,28a4.8,4.8,0,0,1-4.15,2.39h0a4.79,4.79,0,0,1-4.15-2.39L282.6,188.27Z" fill="#b56d45"/><path d="M480.6,175.16a4.72,4.72,0,0,1-1.23-.16,4.79,4.79,0,0,1-3.56-4.63,4.82,4.82,0,0,1,9-2.54,4.79,4.79,0,0,1,0,4.79l-.08.13A4.79,4.79,0,0,1,480.6,175.16Z" fill="#b56d45"/><path d="M521.21,424.2H482.39a4.8,4.8,0,1,1,0-9.59h34V188.11l-11.36,19.67a4.78,4.78,0,0,1-4.15,2.4h0a4.8,4.8,0,0,1-4.16-2.39l-20.28-35.15a4.79,4.79,0,0,1,8.29-4.81l16.14,28,16.17-28a4.79,4.79,0,0,1,8.94,2.4v249.1A4.86,4.86,0,0,1,521.21,424.2Z" fill="#b56d45"/></g></g></svg>