<?xml version="1.0" encoding="utf-8"?>
<!-- Generator: Adobe Illustrator 24.1.2, SVG Export Plug-In . SVG Version: 6.00 Build 0)  -->
<svg version="1.1" id="Layer_1" xmlns="http://www.w3.org/2000/svg" xmlns:xlink="http://www.w3.org/1999/xlink" x="0px" y="0px"
	 viewBox="0 0 525 125" style="enable-background:new 0 0 525 125;" xml:space="preserve">
<style type="text/css">
	.st0{fill:#0086EA;}
	.st1{fill:#FFFFFF;}
	.st2{fill:#252627;}
</style>
<g>
	<circle class="st0" cx="71.53" cy="62.5" r="41"/>
	<g>
		<circle class="st1" cx="60.32" cy="78.5" r="7.5"/>
		<path class="st1" d="M72.25,86L72.25,86l0-47h18v29C90.25,77.94,82.19,86,72.25,86z"/>
	</g>
	<g>
		<path class="st2" d="M132.92,87.35c1.39-0.21,2.52-0.64,3.41-1.3c0.88-0.66,1.57-1.8,2.05-3.43c0.49-1.63,0.73-3.9,0.73-6.81
			V47.36c0-1.32-0.1-2.27-0.29-2.86c-0.19-0.59-0.53-0.99-1.01-1.2s-1.28-0.35-2.39-0.42v-1.04c1.87,0.1,4.77,0.16,8.68,0.16
			c4.06,0,7.14-0.05,9.26-0.16v1.04c-1.11,0.07-1.92,0.21-2.42,0.42c-0.5,0.21-0.84,0.61-1.01,1.2c-0.17,0.59-0.26,1.54-0.26,2.86
			v19.03v4.32c0,2.01-0.06,3.78-0.18,5.3c-0.12,1.53-0.36,2.84-0.7,3.95c-0.83,2.53-2.58,4.58-5.25,6.14
			c-2.67,1.56-6.21,2.34-10.61,2.34V87.35z"/>
		<path class="st2" d="M177.07,70.24l0.88,0.31c-0.76,2.43-2.05,4.51-3.87,6.24c-1.82,1.73-4.15,2.6-6.99,2.6
			c-3.64,0-6.55-1.13-8.74-3.38c-2.18-2.25-3.28-5.86-3.28-10.82c0-4.75,1.22-8.31,3.67-10.69c2.44-2.37,5.68-3.56,9.7-3.56
			c6.55,0,9.83,3.88,9.83,11.65h-13.42c-0.03,0.42-0.05,1.04-0.05,1.87c0,3.33,0.58,5.7,1.74,7.12c1.16,1.42,2.57,2.13,4.24,2.13
			C173.3,73.72,175.4,72.56,177.07,70.24z M164.64,61.61h6.03c0.03-2.77-0.17-5.04-0.6-6.81c-0.43-1.77-1.1-2.65-2-2.65
			C166.13,52.14,164.98,55.3,164.64,61.61z"/>
		<path class="st2" d="M202.83,52.51c0.75,1.04,1.12,2.27,1.12,3.69c0,1.56-0.44,2.8-1.33,3.72c-0.88,0.92-2.04,1.38-3.46,1.38
			c-1.49,0-2.63-0.34-3.43-1.01c-0.8-0.68-1.2-1.59-1.2-2.73c0-2.05,0.88-3.66,2.65-4.84c-0.62,0-1.18,0.12-1.66,0.36
			c-0.87,0.38-1.59,1-2.18,1.85c-0.59,0.85-0.88,1.78-0.88,2.78v15.6c0,1.63,0.34,2.75,1.01,3.35c0.68,0.61,1.83,0.91,3.46,0.91
			v1.09c-0.45,0-0.83-0.02-1.14-0.05c-3.64-0.1-6.07-0.16-7.28-0.16c-1.08,0-3.48,0.05-7.23,0.16c-0.28,0.04-0.64,0.05-1.09,0.05
			v-1.09c1.07,0,1.83-0.27,2.26-0.81s0.65-1.52,0.65-2.94V57.34c0-1.59-0.22-2.76-0.65-3.48s-1.19-1.09-2.26-1.09v-1.09
			c1.11,0.1,2.18,0.16,3.22,0.16c3.6,0,6.62-0.24,9.05-0.73v3.74c1.32-2.6,3.55-3.9,6.71-3.9
			C200.86,50.95,202.08,51.47,202.83,52.51z"/>
		<path class="st2" d="M227.19,70.24l0.88,0.31c-0.76,2.43-2.05,4.51-3.87,6.24c-1.82,1.73-4.15,2.6-6.99,2.6
			c-3.64,0-6.55-1.13-8.74-3.38c-2.18-2.25-3.28-5.86-3.28-10.82c0-4.75,1.22-8.31,3.67-10.69c2.44-2.37,5.68-3.56,9.7-3.56
			c6.55,0,9.83,3.88,9.83,11.65h-13.42c-0.03,0.42-0.05,1.04-0.05,1.87c0,3.33,0.58,5.7,1.74,7.12c1.16,1.42,2.57,2.13,4.24,2.13
			C223.43,73.72,225.53,72.56,227.19,70.24z M214.76,61.61h6.03c0.03-2.77-0.17-5.04-0.6-6.81c-0.43-1.77-1.1-2.65-2-2.65
			C216.25,52.14,215.11,55.3,214.76,61.61z"/>
		<path class="st2" d="M274.02,76.77c0.43,0.54,1.19,0.81,2.26,0.81v1.09c-3.74-0.14-6.17-0.21-7.28-0.21
			c-1.11,0-3.4,0.07-6.86,0.21v-1.09c0.69,0,1.18-0.26,1.46-0.78c0.28-0.52,0.42-1.51,0.42-2.96v-16.9c0-1.11-0.2-1.93-0.6-2.47
			c-0.4-0.54-1.05-0.81-1.95-0.81c-0.9,0-1.73,0.38-2.47,1.14c-0.75,0.76-1.2,1.66-1.38,2.7c0.07,0.83,0.1,1.58,0.1,2.24v14.09
			c0,1.46,0.17,2.44,0.52,2.96c0.35,0.52,0.97,0.78,1.87,0.78v1.09c-3.47-0.14-5.72-0.21-6.76-0.21c-1.11,0-3.4,0.07-6.86,0.21
			v-1.09c0.69,0,1.18-0.27,1.46-0.81s0.42-1.52,0.42-2.94v-16.9c0-1.11-0.16-1.93-0.47-2.47c-0.31-0.54-0.83-0.81-1.56-0.81
			c-1.01,0-1.88,0.36-2.63,1.07c-0.75,0.71-1.12,1.6-1.12,2.68v16.43c0,1.46,0.14,2.44,0.42,2.96c0.28,0.52,0.76,0.78,1.46,0.78
			v1.09c-3.19-0.14-5.3-0.21-6.34-0.21c-1.18,0-3.78,0.07-7.8,0.21v-1.09c1.07,0,1.83-0.27,2.26-0.81s0.65-1.52,0.65-2.94V57.34
			c0-1.59-0.22-2.76-0.65-3.48s-1.19-1.09-2.26-1.09v-1.09c1.11,0.1,2.18,0.16,3.22,0.16c3.6,0,6.62-0.24,9.05-0.73v3.74
			c1.46-2.6,4.04-3.9,7.75-3.9c2.77,0,4.73,0.69,5.88,2.08c0.52,0.62,0.9,1.44,1.14,2.44c0.87-1.66,2.02-2.83,3.46-3.51
			c1.44-0.68,3.16-1.01,5.17-1.01c2.77,0,4.73,0.69,5.88,2.08c0.52,0.62,0.9,1.47,1.14,2.52c0.24,1.06,0.36,2.45,0.36,4.19v14.09
			C273.37,75.25,273.58,76.23,274.02,76.77z"/>
		<path class="st2" d="M303.53,51.68v1.09c-0.73,0.24-1.4,0.75-2,1.51c-0.61,0.76-1.17,1.94-1.69,3.54l-6.5,19.34l-2.18,6.29
			c-0.62,1.8-1.39,3.05-2.29,3.75c-1.07,0.83-2.69,1.25-4.84,1.25c-1.73,0-3.35-0.41-4.84-1.22c-1.49-0.81-2.24-2.04-2.24-3.67
			c0-1.21,0.47-2.18,1.4-2.91c0.94-0.73,2.17-1.09,3.69-1.09c1.46,0,2.6,0.33,3.43,0.99c0.83,0.66,1.25,1.61,1.25,2.86
			c0,0.83-0.29,1.62-0.86,2.37c-0.57,0.75-1.41,1.29-2.52,1.64c0.35,0.07,0.94,0.1,1.77,0.1c2.39,0,4.04-1.39,4.94-4.16l0.26-0.88
			L278.2,55.68c-0.52-1.18-1.03-1.96-1.53-2.34c-0.5-0.38-1-0.57-1.48-0.57v-1.09c2.77,0.21,5.6,0.31,8.48,0.31
			c2.25,0,4.77-0.1,7.54-0.31v1.09c-1.01,0-1.78,0.07-2.31,0.21c-0.54,0.14-0.81,0.45-0.81,0.94c0,0.28,0.07,0.55,0.21,0.83
			l6.4,15.24l2.18-6.66c0.66-2.01,0.99-3.78,0.99-5.3c0-1.63-0.35-2.89-1.04-3.8c-0.69-0.9-1.61-1.39-2.76-1.46v-1.09
			c1.28,0.14,3.1,0.21,5.46,0.21C301.5,51.88,302.83,51.81,303.53,51.68z"/>
		<path class="st2" d="M333.69,42.89c-1.25,0.07-2.16,0.21-2.73,0.42c-0.57,0.21-0.96,0.61-1.17,1.2c-0.21,0.59-0.31,1.54-0.31,2.86
			v26.83c0,0.97,0.07,1.68,0.21,2.13c0.14,0.45,0.38,0.75,0.73,0.91s0.92,0.23,1.72,0.23h1.72c1.21,0,2.53-0.61,3.95-1.82
			c1.42-1.21,2.7-2.82,3.85-4.81c1.14-1.99,1.91-4.06,2.29-6.21h1.2c-0.1,1.25-0.16,2.84-0.16,4.78c0,3.74,0.12,6.83,0.36,9.26
			c-2.36-0.1-6.33-0.16-11.91-0.16c-8.11,0-14.18,0.05-18.2,0.16v-1.04c1.11-0.07,1.92-0.21,2.42-0.42c0.5-0.21,0.84-0.61,1.01-1.2
			s0.26-1.54,0.26-2.86V47.36c0-1.32-0.1-2.27-0.29-2.86c-0.19-0.59-0.53-0.99-1.01-1.2s-1.28-0.35-2.39-0.42v-1.04
			c1.98,0.1,5.06,0.16,9.26,0.16c3.99,0,7.05-0.05,9.2-0.16V42.89z"/>
		<path class="st2" d="M374.82,73c0,1.59,0.22,2.76,0.65,3.48c0.43,0.73,1.19,1.09,2.26,1.09v1.09c-1.08-0.1-2.15-0.16-3.22-0.16
			c-3.61,0-6.62,0.24-9.05,0.73v-3.74c-1.56,2.6-4.32,3.9-8.27,3.9c-2.77,0-4.73-0.69-5.88-2.08c-0.52-0.62-0.9-1.46-1.14-2.52
			c-0.24-1.06-0.36-2.45-0.36-4.19V57.34c0-1.59-0.22-2.76-0.65-3.48c-0.43-0.73-1.19-1.09-2.26-1.09v-1.09
			c1.07,0.1,2.15,0.16,3.22,0.16c3.61,0,6.62-0.24,9.05-0.73v22.31c0,1.11,0.2,1.93,0.6,2.47c0.4,0.54,1.05,0.81,1.95,0.81
			c1.01,0,1.88-0.36,2.63-1.07c0.75-0.71,1.12-1.6,1.12-2.68v-15.6c0-1.59-0.22-2.76-0.65-3.48c-0.43-0.73-1.19-1.09-2.26-1.09
			v-1.09c1.07,0.1,2.15,0.16,3.22,0.16c3.6,0,6.62-0.24,9.05-0.73V73z"/>
		<path class="st2" d="M391.77,51.68h5.1v1.04h-5.1V74.3c0,0.69,0.12,1.18,0.36,1.46c0.24,0.28,0.64,0.42,1.2,0.42
			c0.42,0,0.88-0.12,1.4-0.36c0.52-0.24,0.99-0.62,1.4-1.14l0.78,0.62c-1.59,2.74-4.06,4.11-7.38,4.11c-2.39,0-4.18-0.59-5.36-1.77
			c-0.73-0.73-1.21-1.63-1.43-2.7c-0.23-1.07-0.34-2.58-0.34-4.52V52.72h-3.95v-1.04h3.95v-6.14c1.87,0,3.56-0.18,5.07-0.55
			c1.51-0.36,2.94-0.94,4.29-1.74V51.68z"/>
		<path class="st2" d="M395.77,87.4c1.49,0,2.69-0.53,3.59-1.59c0.9-1.06,1.35-2.71,1.35-4.97v-23.5c0-1.59-0.22-2.76-0.65-3.48
			c-0.43-0.73-1.19-1.09-2.26-1.09v-1.09c1.07,0.1,2.15,0.16,3.22,0.16c3.6,0,6.62-0.24,9.05-0.73v23.4c0,3.05-0.28,5.41-0.83,7.07
			c-0.55,1.66-1.51,3.08-2.86,4.26c-2.05,1.73-5.58,2.6-10.61,2.6V87.4z M409.01,39.14c0.99,0.76,1.48,1.87,1.48,3.33
			s-0.49,2.57-1.48,3.33c-0.99,0.76-2.38,1.14-4.19,1.14c-1.84,0-3.24-0.38-4.21-1.14c-0.97-0.76-1.46-1.87-1.46-3.33
			s0.49-2.56,1.46-3.33c0.97-0.76,2.37-1.14,4.21-1.14C406.62,38,408.02,38.38,409.01,39.14z"/>
		<path class="st2" d="M436.96,70.24l0.88,0.31c-0.76,2.43-2.05,4.51-3.87,6.24c-1.82,1.73-4.15,2.6-6.99,2.6
			c-3.64,0-6.55-1.13-8.74-3.38c-2.18-2.25-3.28-5.86-3.28-10.82c0-4.75,1.22-8.31,3.67-10.69c2.44-2.37,5.68-3.56,9.7-3.56
			c6.55,0,9.83,3.88,9.83,11.65h-13.42c-0.03,0.42-0.05,1.04-0.05,1.87c0,3.33,0.58,5.7,1.74,7.12c1.16,1.42,2.57,2.13,4.24,2.13
			C433.19,73.72,435.29,72.56,436.96,70.24z M424.53,61.61h6.03c0.03-2.77-0.17-5.04-0.6-6.81c-0.43-1.77-1.1-2.65-2-2.65
			C426.02,52.14,424.88,55.3,424.53,61.61z"/>
		<path class="st2" d="M466.49,53.03c0.52,0.62,0.9,1.47,1.14,2.52c0.24,1.06,0.36,2.45,0.36,4.19v14.09c0,1.42,0.22,2.4,0.65,2.94
			c0.43,0.54,1.19,0.81,2.26,0.81v1.09c-3.74-0.14-6.17-0.21-7.28-0.21c-1.18,0-3.64,0.07-7.38,0.21v-1.09
			c0.9,0,1.53-0.27,1.87-0.81s0.52-1.52,0.52-2.94v-16.9c0-1.11-0.2-1.93-0.6-2.47c-0.4-0.54-1.05-0.81-1.95-0.81
			c-1.01,0-1.88,0.36-2.63,1.07c-0.75,0.71-1.12,1.6-1.12,2.68v16.43c0,1.42,0.17,2.4,0.52,2.94s0.97,0.81,1.87,0.81v1.09
			c-3.47-0.14-5.75-0.21-6.86-0.21c-1.18,0-3.78,0.07-7.8,0.21v-1.09c1.07,0,1.83-0.27,2.26-0.81s0.65-1.52,0.65-2.94V57.34
			c0-1.59-0.22-2.76-0.65-3.48s-1.19-1.09-2.26-1.09v-1.09c1.11,0.1,2.18,0.16,3.22,0.16c3.6,0,6.62-0.24,9.05-0.73v3.74
			c1.56-2.6,4.32-3.9,8.27-3.9C463.39,50.95,465.35,51.64,466.49,53.03z"/>
		<path class="st2" d="M487.32,51.39c1.2,0.29,2.11,0.62,2.73,0.96c0.38,0.21,0.69,0.31,0.94,0.31c0.73,0,1.16-0.55,1.3-1.66h1.04
			c-0.14,1.8-0.21,4.92-0.21,9.36h-1.04c-0.28-2.29-0.93-4.22-1.95-5.8c-1.02-1.58-2.5-2.37-4.45-2.37c-0.87,0-1.6,0.26-2.18,0.78
			c-0.59,0.52-0.88,1.23-0.88,2.13c0,1.14,0.38,2.16,1.14,3.04c0.76,0.88,1.96,1.97,3.59,3.25c0.07,0.04,0.57,0.43,1.51,1.2
			c1.94,1.59,3.36,3.01,4.26,4.24c0.9,1.23,1.35,2.75,1.35,4.55c0,1.53-0.47,2.9-1.4,4.13c-0.94,1.23-2.21,2.18-3.82,2.86
			c-1.61,0.68-3.37,1.01-5.28,1.01c-2.18,0-3.97-0.43-5.36-1.3c-0.59-0.31-1.08-0.54-1.46-0.68c-0.38-0.14-0.76-0.21-1.14-0.21
			c-0.66,0-1.14,0.61-1.46,1.82h-1.04c0.14-1.98,0.21-5.44,0.21-10.4h1.04c0.31,2.84,1.07,5.13,2.29,6.86
			c1.21,1.73,2.74,2.6,4.58,2.6c0.87,0,1.59-0.24,2.16-0.73c0.57-0.49,0.86-1.2,0.86-2.13c0-0.97-0.2-1.84-0.6-2.6
			c-0.4-0.76-0.88-1.45-1.46-2.05c-0.57-0.61-1.5-1.48-2.78-2.63c-1.46-1.35-2.57-2.43-3.33-3.22c-0.76-0.8-1.41-1.72-1.95-2.78
			c-0.54-1.06-0.81-2.23-0.81-3.51c0-1.49,0.45-2.81,1.35-3.95s2.1-2.02,3.59-2.63c1.49-0.61,3.1-0.91,4.84-0.91
			C484.85,50.95,486.12,51.1,487.32,51.39z"/>
	</g>
</g>
</svg>
